<svg width="32" height="32" viewBox="0 0 32 32" fill="none" xmlns="http://www.w3.org/2000/svg">
<path d="M5.33329 4H3.99996C3.26359 4 2.66663 4.59696 2.66663 5.33333V24L4.66663 28L6.66663 24V5.33333C6.66663 4.59696 6.06967 4 5.33329 4Z" stroke="#FFFCFC" stroke-width="2" stroke-linejoin="round"/>
<path d="M28 16.0017V10.6676C28 7.52448 28 5.95291 27.0237 4.97645C26.0473 4 24.476 4 21.3333 4H17.3333C14.1906 4 12.6193 4 11.6429 4.97645C10.6666 5.95291 10.6666 7.52448 10.6666 10.6676V21.3359C10.6666 24.4789 10.6666 26.0505 11.6429 27.0271C12.4701 27.8544 13.7245 27.9807 16 28" stroke="#FFFCFC" stroke-width="2" stroke-linecap="round" stroke-linejoin="round"/>
<path d="M16 9.33337H22.6667" stroke="#FFFCFC" stroke-width="2" stroke-linecap="round" stroke-linejoin="round"/>
<path d="M16 14.6666H22.6667" stroke="#FFFCFC" stroke-width="2" stroke-linecap="round" stroke-linejoin="round"/>
<path d="M18.6666 25.3333C18.6666 25.3333 20.6666 26 22 28C22 28 24 22.6667 29.3333 20" stroke="#FFFCFC" stroke-width="2" stroke-linecap="round" stroke-linejoin="round"/>
<path d="M2.66663 9.33337H6.66663" stroke="#FFFCFC" stroke-width="2" stroke-linecap="round" stroke-linejoin="round"/>
</svg>
