<svg width="64" height="64" viewBox="0 0 64 64" fill="none" xmlns="http://www.w3.org/2000/svg">
<rect width="0.855939" height="5.99158" transform="matrix(-1 0 0 1 4.06573 13.588)" fill="#0B138D"/>
<circle cx="2.03286" cy="2.03286" r="2.03286" transform="matrix(-1 0 0 1 5.67065 10.1642)" fill="url(#paint0_linear_59_483)"/>
<rect width="16.1559" height="17.9747" rx="3.20977" transform="matrix(-1 0 0 1 16.1559 19.5796)" fill="url(#paint1_linear_59_483)"/>
<rect x="59.0598" y="13.588" width="0.855939" height="5.99158" fill="#0B138D"/>
<circle cx="59.4878" cy="12.1971" r="2.03286" fill="url(#paint2_linear_59_483)"/>
<rect x="46.9697" y="19.5796" width="16.1559" height="17.9747" rx="3.20977" fill="url(#paint3_linear_59_483)"/>
<path fill-rule="evenodd" clip-rule="evenodd" d="M36.8177 57.2822C49.7281 54.8239 59.4878 43.4771 59.4878 29.8509C59.4878 14.4283 46.9853 1.92586 31.5628 1.92586C16.1402 1.92586 3.63776 14.4283 3.63776 29.8509C3.63776 41.1073 10.2979 50.8082 19.8925 55.2278L19.3657 63.5L36.9124 57.2944L36.8177 57.2822Z" fill="url(#paint4_linear_59_483)"/>
<path fill-rule="evenodd" clip-rule="evenodd" d="M12.8391 24.8222C11.1846 24.8222 9.84332 26.1635 9.84332 27.818V29.7439C9.84332 29.8401 9.84786 29.9353 9.85673 30.0291C10.2617 41.8778 19.8025 51.3563 31.5129 51.3563C43.4806 51.3563 53.1824 41.4565 53.1824 29.2446H53.1753V27.818C53.1753 26.1635 51.834 24.8222 50.1795 24.8222H12.8391Z" fill="url(#paint5_linear_59_483)"/>
<circle cx="23.0034" cy="32.7397" r="3.20977" fill="#00DEFD"/>
<circle cx="40.1222" cy="32.7397" r="3.20977" fill="#00DEFD"/>
<rect x="27.7111" y="42.69" width="7.59646" height="2.7818" rx="0.855939" fill="#00DEFD"/>
<g filter="url(#filter0_i_59_483)">
<path d="M44.1322 2.19763C34.0321 -1.78249 23.0903 0.539246 18.882 2.19763V8.1892C18.24 15.3363 23.7858 17.765 26.6389 18.086H36.8567C43.8754 16.0745 44.6315 10.65 44.1322 8.1892V2.19763Z" fill="url(#paint6_linear_59_483)"/>
</g>
<path d="M28.7809 10.1643H34.3446" stroke="#000383" stroke-width="0.42797" stroke-linecap="round"/>
<path d="M28.7809 11.6621H34.3446" stroke="#000383" stroke-width="0.42797" stroke-linecap="round"/>
<path d="M28.7809 13.16H34.3446" stroke="#000383" stroke-width="0.42797" stroke-linecap="round"/>
<defs>
<filter id="filter0_i_59_483" x="18.8307" y="0" width="25.4246" height="18.086" filterUnits="userSpaceOnUse" color-interpolation-filters="sRGB">
<feFlood flood-opacity="0" result="BackgroundImageFix"/>
<feBlend mode="normal" in="SourceGraphic" in2="BackgroundImageFix" result="shape"/>
<feColorMatrix in="SourceAlpha" type="matrix" values="0 0 0 0 0 0 0 0 0 0 0 0 0 0 0 0 0 0 127 0" result="hardAlpha"/>
<feOffset dy="-2.13985"/>
<feComposite in2="hardAlpha" operator="arithmetic" k2="-1" k3="1"/>
<feColorMatrix type="matrix" values="0 0 0 0 0.00392157 0 0 0 0 0.0117647 0 0 0 0 0.517647 0 0 0 1 0"/>
<feBlend mode="normal" in2="shape" result="effect1_innerShadow_59_483"/>
</filter>
<linearGradient id="paint0_linear_59_483" x1="0" y1="2.03286" x2="4.06571" y2="2.03286" gradientUnits="userSpaceOnUse">
<stop stop-color="#02BCF9"/>
<stop offset="1" stop-color="#3990EB"/>
</linearGradient>
<linearGradient id="paint1_linear_59_483" x1="1.92586" y1="0.909435" x2="15.1929" y2="17.2258" gradientUnits="userSpaceOnUse">
<stop stop-color="#0731E2"/>
<stop offset="1" stop-color="#0865F7"/>
</linearGradient>
<linearGradient id="paint2_linear_59_483" x1="57.455" y1="12.1971" x2="61.5207" y2="12.1971" gradientUnits="userSpaceOnUse">
<stop stop-color="#02BCF9"/>
<stop offset="1" stop-color="#3990EB"/>
</linearGradient>
<linearGradient id="paint3_linear_59_483" x1="48.8956" y1="20.489" x2="62.1627" y2="36.8054" gradientUnits="userSpaceOnUse">
<stop stop-color="#0731E2"/>
<stop offset="1" stop-color="#0865F7"/>
</linearGradient>
<linearGradient id="paint4_linear_59_483" x1="11.3412" y1="12.0901" x2="52.0518" y2="47.6651" gradientUnits="userSpaceOnUse">
<stop stop-color="#01C1FF"/>
<stop offset="1" stop-color="#0788FF"/>
</linearGradient>
<linearGradient id="paint5_linear_59_483" x1="16.4769" y1="26.3201" x2="37.6614" y2="50.0189" gradientUnits="userSpaceOnUse">
<stop stop-color="#0030CB"/>
<stop offset="1" stop-color="#000180"/>
</linearGradient>
<linearGradient id="paint6_linear_59_483" x1="31.543" y1="0" x2="31.543" y2="18.086" gradientUnits="userSpaceOnUse">
<stop stop-color="#01C1FE"/>
<stop offset="1" stop-color="#048BFE"/>
</linearGradient>
</defs>
</svg>
