<svg width="32" height="32" viewBox="0 0 32 32" fill="none" xmlns="http://www.w3.org/2000/svg">
<path d="M13 4H7.66667C6.73629 4 6.27111 4 5.89257 4.11483C5.04031 4.37336 4.37336 5.04031 4.11483 5.89257C4 6.27111 4 6.73629 4 7.66667C4 8.59704 4 9.06223 4.11483 9.44076C4.37336 10.293 5.04031 10.96 5.89257 11.2185C6.27111 11.3333 6.73629 11.3333 7.66667 11.3333H13C13.9304 11.3333 14.3956 11.3333 14.7741 11.2185C15.6264 10.96 16.2933 10.293 16.5519 9.44076C16.6667 9.06223 16.6667 8.59704 16.6667 7.66667C16.6667 6.73629 16.6667 6.27111 16.5519 5.89257C16.2933 5.04031 15.6264 4.37336 14.7741 4.11483C14.3956 4 13.9304 4 13 4Z" stroke="#FFFCFC" stroke-width="2" stroke-linejoin="round"/>
<path d="M28 13V7.66667C28 6.73629 28 6.27111 27.8852 5.89257C27.6267 5.04031 26.9597 4.37336 26.1075 4.11483C25.7289 4 25.2637 4 24.3333 4C23.4029 4 22.9377 4 22.5592 4.11483C21.7069 4.37336 21.04 5.04031 20.7815 5.89257C20.6667 6.27111 20.6667 6.73629 20.6667 7.66667V13C20.6667 13.9304 20.6667 14.3956 20.7815 14.7741C21.04 15.6264 21.7069 16.2933 22.5592 16.5519C22.9377 16.6667 23.4029 16.6667 24.3333 16.6667C25.2637 16.6667 25.7289 16.6667 26.1075 16.5519C26.9597 16.2933 27.6267 15.6264 27.8852 14.7741C28 14.3956 28 13.9304 28 13Z" stroke="#FFFCFC" stroke-width="2" stroke-linejoin="round"/>
<path d="M22.5592 27.8852C22.9377 28 23.4029 28 24.3333 28C25.2637 28 25.7289 28 26.1075 27.8852C26.9597 27.6266 27.6267 26.9597 27.8852 26.1074C28 25.7289 28 25.2637 28 24.3333C28 23.4029 28 22.9377 27.8852 22.5592C27.6267 21.7069 26.9597 21.04 26.1075 20.7814C25.7289 20.6666 25.2637 20.6666 24.3333 20.6666C23.4029 20.6666 22.9377 20.6666 22.5592 20.7814C21.7069 21.04 21.04 21.7069 20.7815 22.5592C20.6667 22.9377 20.6667 23.4029 20.6667 24.3333C20.6667 25.2637 20.6667 25.7289 20.7815 26.1074C21.04 26.9597 21.7069 27.6266 22.5592 27.8852Z" stroke="#FFFCFC" stroke-width="2" stroke-linejoin="round"/>
<path d="M11.3333 15.3334H9.33333C6.81917 15.3334 5.56209 15.3334 4.78105 16.1144C4 16.8955 4 18.1526 4 20.6667V22.6667C4 25.1808 4 26.4379 4.78105 27.219C5.56209 28 6.81917 28 9.33333 28H11.3333C13.8475 28 15.1045 28 15.8856 27.219C16.6667 26.4379 16.6667 25.1808 16.6667 22.6667V20.6667C16.6667 18.1526 16.6667 16.8955 15.8856 16.1144C15.1045 15.3334 13.8475 15.3334 11.3333 15.3334Z" stroke="#FFFCFC" stroke-width="2" stroke-linejoin="round"/>
</svg>
