<svg width="82" height="77" viewBox="0 0 82 77" fill="none" xmlns="http://www.w3.org/2000/svg">
<path fill-rule="evenodd" clip-rule="evenodd" d="M43.0162 76.063C50.8964 76.063 57.2884 59.2802 57.3222 38.5435C57.2868 58.0468 50.9891 73.8299 43.2256 73.8299C35.4401 73.8299 29.1288 57.9578 29.1288 38.3786C29.1288 18.7995 35.4401 2.92741 43.2256 2.92741C50.989 2.92741 57.2867 18.7101 57.3222 38.2131C57.2883 17.4768 50.8963 0.694302 43.0162 0.694302C35.1151 0.694302 28.7101 17.5662 28.7101 38.3787C28.7101 59.1912 35.1151 76.063 43.0162 76.063Z" fill="url(#paint0_linear_2_289)"/>
<path fill-rule="evenodd" clip-rule="evenodd" d="M20.3826 14.6272C15.0826 15.004 11.0123 16.8742 9.05377 20.2955C4.13273 28.8918 14.4062 44.0253 32.0002 54.0972C49.5942 64.169 67.8463 65.3652 72.7673 56.7689C75.2863 52.3686 73.824 46.2554 69.4364 39.9849C73.1218 45.6491 74.2521 51.0991 71.973 55.0804C67.2515 63.328 49.6866 62.1498 32.7405 52.4489C15.7944 42.7479 5.88433 28.1977 10.6057 19.9501C12.3454 16.9112 15.8289 15.1519 20.3826 14.6272Z" fill="#0090F1"/>
<path fill-rule="evenodd" clip-rule="evenodd" d="M33.3231 24.2208C16.2747 33.63 6.29167 48.2105 11.0253 56.7873C13.84 61.8873 21.2244 63.7162 30.333 62.3826C20.5094 63.9663 12.4793 62.0721 9.45285 56.5884C4.50082 47.6159 14.8202 32.4313 32.5018 22.6726C50.1835 12.9139 68.5317 12.2766 73.4837 21.2492C76.65 26.9861 73.5731 35.2625 66.3204 43.0365C72.9479 35.7337 75.7125 28.0582 72.7629 22.7138C68.0292 14.137 50.3714 14.8117 33.3231 24.2208Z" fill="#4AB6C3"/>
<circle cx="55.2287" cy="50.5214" r="8.23473" fill="#4AB6C3"/>
<circle cx="23.2668" cy="30.8418" r="4.74544" fill="#4AB6C3"/>
<circle cx="55.3683" cy="31.5396" r="5.4433" fill="#0090F1"/>
<path d="M43.0859 38.7276C37.6706 41.5748 32.3157 41.8214 30.3151 41.5888L37.9218 55.197C38.5033 54.2666 39.6385 52.1683 39.5269 51.2192C39.4152 50.2701 40.6434 47.6602 41.2715 46.4738C43.9513 42.0633 47.4941 39.4952 48.8782 38.5182C51.2509 36.8433 53.1584 36.7038 53.9725 36.9131L49.925 31.4698C49.9017 32.7027 48.5013 35.8803 43.0859 38.7276Z" fill="#0090F1"/>
<circle cx="30.2454" cy="50.5214" r="8.93259" fill="#0090F1"/>
<defs>
<linearGradient id="paint0_linear_2_289" x1="57.3222" y1="38.3787" x2="30.7166" y2="40.0934" gradientUnits="userSpaceOnUse">
<stop stop-color="#FFFCFC"/>
<stop offset="1" stop-color="#49B6C2"/>
</linearGradient>
</defs>
</svg>
