<svg width="206" height="77" viewBox="0 0 206 77" fill="none" xmlns="http://www.w3.org/2000/svg">
<path fill-rule="evenodd" clip-rule="evenodd" d="M43.8435 76.3056C51.7445 76.3056 58.1496 59.4338 58.1496 38.6213C58.1496 17.8088 51.7445 0.93689 43.8435 0.93689C35.9424 0.93689 29.5374 17.8088 29.5374 38.6213C29.5374 59.4338 35.9424 76.3056 43.8435 76.3056ZM44.0528 74.0725C51.8382 74.0725 58.1495 58.2004 58.1496 38.6213C58.1495 19.0421 51.8382 3.17004 44.0528 3.17004C36.2674 3.17004 29.9561 19.0421 29.9561 38.6213C29.9561 58.2004 36.2674 74.0725 44.0528 74.0725Z" fill="url(#paint0_linear_2_272)"/>
<path fill-rule="evenodd" clip-rule="evenodd" d="M21.2092 14.8698C15.9095 15.2467 11.8395 17.1169 9.88104 20.5381C4.96 29.1344 15.2335 44.2679 32.8275 54.3398C50.4215 64.4116 68.6735 65.6078 73.5946 57.0115C76.1136 52.6111 74.6512 46.4978 70.2635 40.2273C73.949 45.8916 75.0794 51.3416 72.8002 55.3229C68.0788 63.5705 50.5138 62.3924 33.5677 52.6914C16.6216 42.9905 6.71157 28.4403 11.433 20.1927C13.1726 17.1539 16.6558 15.3946 21.2092 14.8698Z" fill="#0090F1"/>
<path fill-rule="evenodd" clip-rule="evenodd" d="M34.1503 24.4634C17.102 33.8726 7.11894 48.4531 11.8526 57.0299C14.6673 62.1299 22.0516 63.9587 31.1603 62.6252C21.3367 64.2089 13.3066 62.3146 10.2801 56.831C5.32809 47.8585 15.6475 32.6738 33.3291 22.9152C51.0107 13.1565 69.359 12.5192 74.311 21.4918C77.4772 27.2287 74.4004 35.5051 67.1477 43.2791C73.7752 35.9763 76.5397 28.3008 73.5901 22.9564C68.8565 14.3796 51.1987 15.0543 34.1503 24.4634Z" fill="#4AB6C3"/>
<circle cx="56.056" cy="50.764" r="8.23473" fill="#4AB6C3"/>
<circle cx="24.0941" cy="31.0844" r="4.74544" fill="#4AB6C3"/>
<circle cx="56.1955" cy="31.7823" r="5.4433" fill="#0090F1"/>
<path d="M43.9132 38.9702C38.4978 41.8175 33.1429 42.064 31.1424 41.8314L38.7491 55.4397C39.3306 54.5092 40.4658 52.411 40.3541 51.4619C40.2425 50.5128 41.4707 47.9028 42.0988 46.7164C44.7786 42.306 48.3213 39.7379 49.7054 38.7609C52.0782 37.086 53.9856 36.9464 54.7998 37.1558L50.7522 31.7125C50.729 32.9454 49.3286 36.1229 43.9132 38.9702Z" fill="#0090F1"/>
<circle cx="31.0726" cy="50.764" r="8.93259" fill="#0090F1"/>
<path d="M95.922 25.2708C96.0609 25.2708 96.1808 25.3213 96.2818 25.4223C96.3828 25.5233 96.4333 25.6432 96.4333 25.7821V38.0153C96.4333 38.1542 96.3828 38.2741 96.2818 38.3751C96.1808 38.4761 96.0609 38.5266 95.922 38.5266H92.8732C92.5702 38.5266 92.3177 38.394 92.1157 38.1289L87.9875 32.8645V38.0153C87.9875 38.1542 87.937 38.2741 87.836 38.3751C87.735 38.4761 87.615 38.5266 87.4762 38.5266H83.9539C83.815 38.5266 83.6951 38.4761 83.5941 38.3751C83.4931 38.2741 83.4426 38.1542 83.4426 38.0153V25.7821C83.4426 25.6432 83.4931 25.5233 83.5941 25.4223C83.6951 25.3213 83.815 25.2708 83.9539 25.2708H87.0217C87.3247 25.2708 87.5708 25.397 87.7602 25.6495L91.8885 31.3495V25.7821C91.8885 25.6432 91.9389 25.5233 92.0399 25.4223C92.1409 25.3213 92.2609 25.2708 92.3997 25.2708H95.922ZM114.113 34.8339C114.252 34.8339 114.372 34.8844 114.473 34.9854C114.574 35.0864 114.624 35.2063 114.624 35.3452V38.0153C114.624 38.1542 114.574 38.2741 114.473 38.3751C114.372 38.4761 114.252 38.5266 114.113 38.5266H102.145C102.006 38.5266 101.886 38.4761 101.785 38.3751C101.684 38.2741 101.634 38.1542 101.634 38.0153V25.7821C101.634 25.6432 101.684 25.5233 101.785 25.4223C101.886 25.3213 102.006 25.2708 102.145 25.2708H113.924C114.062 25.2708 114.182 25.3213 114.283 25.4223C114.384 25.5233 114.435 25.6432 114.435 25.7821V28.4522C114.435 28.591 114.384 28.711 114.283 28.812C114.182 28.913 114.062 28.9635 113.924 28.9635H106.557V30.1565H112.882C113.021 30.1565 113.141 30.207 113.242 30.308C113.343 30.409 113.393 30.5289 113.393 30.6678V33.1296C113.393 33.2684 113.343 33.3884 113.242 33.4894C113.141 33.5904 113.021 33.6409 112.882 33.6409H106.557V34.8339H114.113ZM125.96 38.7159C123.839 38.7159 122.154 38.2552 120.904 37.3336C119.667 36.412 119.048 34.9728 119.048 33.016V25.7821C119.048 25.6432 119.099 25.5233 119.2 25.4223C119.301 25.3213 119.42 25.2708 119.559 25.2708H123.517C123.656 25.2708 123.776 25.3213 123.877 25.4223C123.978 25.5233 124.028 25.6432 124.028 25.7821V33.3189C124.028 33.8365 124.199 34.2342 124.54 34.512C124.893 34.7897 125.367 34.9286 125.96 34.9286C126.553 34.9286 127.02 34.7897 127.361 34.512C127.715 34.2342 127.892 33.8365 127.892 33.3189V25.7821C127.892 25.6432 127.942 25.5233 128.043 25.4223C128.144 25.3213 128.264 25.2708 128.403 25.2708H132.361C132.5 25.2708 132.619 25.3213 132.72 25.4223C132.821 25.5233 132.872 25.6432 132.872 25.7821V33.016C132.872 34.9728 132.247 36.412 130.997 37.3336C129.76 38.2552 128.081 38.7159 125.96 38.7159ZM150.476 25.2708C150.615 25.2708 150.735 25.3213 150.836 25.4223C150.937 25.5233 150.987 25.6432 150.987 25.7821V28.8309C150.987 28.9698 150.937 29.0897 150.836 29.1907C150.735 29.2917 150.615 29.3422 150.476 29.3422H146.404V38.0153C146.404 38.1542 146.354 38.2741 146.253 38.3751C146.152 38.4761 146.032 38.5266 145.893 38.5266H141.992C141.853 38.5266 141.733 38.4761 141.632 38.3751C141.531 38.2741 141.481 38.1542 141.481 38.0153V29.3422H137.409C137.271 29.3422 137.151 29.2917 137.05 29.1907C136.949 29.0897 136.898 28.9698 136.898 28.8309V25.7821C136.898 25.6432 136.949 25.5233 137.05 25.4223C137.151 25.3213 137.271 25.2708 137.409 25.2708H150.476ZM169.443 37.9395C169.468 37.99 169.481 38.0468 169.481 38.11C169.481 38.2236 169.437 38.3246 169.349 38.413C169.273 38.4887 169.178 38.5266 169.064 38.5266H164.766C164.589 38.5266 164.425 38.4824 164.273 38.394C164.135 38.3057 164.034 38.192 163.97 38.0532L162.304 34.3037H160.713V38.0153C160.713 38.1542 160.663 38.2741 160.562 38.3751C160.461 38.4761 160.341 38.5266 160.202 38.5266H156.112C155.973 38.5266 155.853 38.4761 155.752 38.3751C155.651 38.2741 155.6 38.1542 155.6 38.0153V25.7821C155.6 25.6432 155.651 25.5233 155.752 25.4223C155.853 25.3213 155.973 25.2708 156.112 25.2708H163.478C164.614 25.2708 165.605 25.4538 166.451 25.8199C167.31 26.1861 167.966 26.7163 168.421 27.4106C168.875 28.105 169.102 28.9193 169.102 29.8535C169.102 31.5704 168.44 32.814 167.114 33.5841L169.443 37.9395ZM163.08 30.8003C163.358 30.8003 163.573 30.712 163.724 30.5352C163.876 30.3459 163.952 30.1123 163.952 29.8346C163.952 29.5568 163.876 29.3169 163.724 29.115C163.585 28.9003 163.371 28.793 163.08 28.793H160.713V30.8003H163.08ZM186.952 33.0538C186.952 34.9854 186.309 36.412 185.021 37.3336C183.746 38.2552 182.041 38.7159 179.908 38.7159C177.774 38.7159 176.064 38.2552 174.776 37.3336C173.501 36.412 172.863 34.9728 172.863 33.016V30.7814C172.863 29.4937 173.166 28.4269 173.772 27.5811C174.391 26.7226 175.23 26.0914 176.291 25.6874C177.351 25.2834 178.557 25.0814 179.908 25.0814C181.259 25.0814 182.458 25.2834 183.506 25.6874C184.566 26.0914 185.406 26.7163 186.025 27.5621C186.643 28.408 186.952 29.4684 186.952 30.7435V33.0538ZM177.976 33.4136C177.976 33.9312 178.147 34.3289 178.488 34.6066C178.841 34.8844 179.315 35.0233 179.908 35.0233C180.501 35.0233 180.968 34.8844 181.309 34.6066C181.663 34.3163 181.839 33.9123 181.839 33.3947V30.4027C181.839 29.8851 181.663 29.4874 181.309 29.2096C180.968 28.9193 180.501 28.7741 179.908 28.7741C179.315 28.7741 178.841 28.913 178.488 29.1907C178.147 29.4684 177.976 29.8661 177.976 30.3837V33.4136ZM203.818 25.2708C203.957 25.2708 204.077 25.3213 204.178 25.4223C204.279 25.5233 204.329 25.6432 204.329 25.7821V38.0153C204.329 38.1542 204.279 38.2741 204.178 38.3751C204.077 38.4761 203.957 38.5266 203.818 38.5266H200.769C200.466 38.5266 200.213 38.394 200.011 38.1289L195.883 32.8645V38.0153C195.883 38.1542 195.833 38.2741 195.732 38.3751C195.631 38.4761 195.511 38.5266 195.372 38.5266H191.85C191.711 38.5266 191.591 38.4761 191.49 38.3751C191.389 38.2741 191.338 38.1542 191.338 38.0153V25.7821C191.338 25.6432 191.389 25.5233 191.49 25.4223C191.591 25.3213 191.711 25.2708 191.85 25.2708H194.917C195.22 25.2708 195.467 25.397 195.656 25.6495L199.784 31.3495V25.7821C199.784 25.6432 199.835 25.5233 199.936 25.4223C200.037 25.3213 200.157 25.2708 200.296 25.2708H203.818Z" fill="white"/>
<path d="M87.5881 47.0169V47.6868H85.2913V53.7159H84.6214V47.6868H82.3294V47.0169H87.5881ZM92.9127 50.754V53.7159H92.2428V50.888C92.2428 50.6264 92.179 50.3888 92.0514 50.175C91.9238 49.9613 91.7531 49.7906 91.5394 49.663C91.3257 49.5354 91.088 49.4716 90.8264 49.4716C90.568 49.4716 90.3304 49.5354 90.1135 49.663C89.8997 49.7906 89.7291 49.9613 89.6015 50.175C89.4739 50.3888 89.4101 50.6264 89.4101 50.888V53.7159H88.7402V46.5384H89.4101V49.5913C89.5791 49.3488 89.7993 49.1558 90.0704 49.0123C90.3416 48.8687 90.6366 48.797 90.9556 48.797C91.3161 48.797 91.6447 48.8847 91.9413 49.0601C92.238 49.2356 92.4741 49.4716 92.6495 49.7683C92.825 50.065 92.9127 50.3936 92.9127 50.754ZM96.0743 53.8404C95.6341 53.8404 95.2321 53.7271 94.8685 53.5006C94.508 53.2741 94.2193 52.9711 94.0024 52.5915C93.7887 52.2087 93.6818 51.786 93.6818 51.3234C93.6818 50.9725 93.744 50.6456 93.8684 50.3425C93.9928 50.0363 94.1635 49.7683 94.3804 49.5386C94.6005 49.3058 94.8557 49.1239 95.146 48.9931C95.4363 48.8624 95.7457 48.797 96.0743 48.797C96.4284 48.797 96.7538 48.8671 97.0504 49.0075C97.3503 49.1479 97.6071 49.344 97.8208 49.5961C98.0378 49.8481 98.2004 50.1431 98.3089 50.4813C98.4206 50.8194 98.4668 51.1847 98.4477 51.577H94.39C94.4283 51.8801 94.524 52.1512 94.6771 52.3905C94.8334 52.6297 95.0312 52.8196 95.2704 52.9599C95.5129 53.0971 95.7808 53.1673 96.0743 53.1705C96.3933 53.1705 96.6804 53.0875 96.9356 52.9216C97.194 52.7558 97.4013 52.5277 97.5577 52.2374L98.2371 52.3953C98.0457 52.8196 97.757 53.1673 97.371 53.4384C96.9851 53.7064 96.5528 53.8404 96.0743 53.8404ZM94.3708 51.0363H97.773C97.7507 50.7397 97.6597 50.4685 97.5002 50.2229C97.3439 49.9741 97.1414 49.7763 96.8925 49.6296C96.6437 49.4796 96.371 49.4047 96.0743 49.4047C95.7776 49.4047 95.5065 49.478 95.2609 49.6248C95.0152 49.7683 94.8143 49.9645 94.6579 50.2133C94.5016 50.459 94.4059 50.7333 94.3708 51.0363ZM101.805 51.8833V48.9309H102.475V51.7493C102.475 52.0109 102.539 52.2485 102.666 52.4623C102.794 52.676 102.965 52.8467 103.178 52.9743C103.395 53.1019 103.633 53.1657 103.891 53.1657C104.153 53.1657 104.389 53.1019 104.6 52.9743C104.813 52.8467 104.984 52.676 105.112 52.4623C105.239 52.2485 105.303 52.0109 105.303 51.7493V48.9309H105.973L105.978 53.7159H105.308L105.303 53.046C105.134 53.2885 104.914 53.4815 104.643 53.625C104.375 53.7686 104.081 53.8404 103.762 53.8404C103.402 53.8404 103.073 53.7526 102.776 53.5772C102.48 53.4017 102.244 53.1657 102.068 52.869C101.893 52.5723 101.805 52.2438 101.805 51.8833ZM107.188 53.7159V46.5384H107.858V53.7159H107.188ZM111.647 49.6008H110.503L110.498 53.7159H109.828L109.833 49.6008H108.967V48.9309H109.833L109.828 47.4285H110.498L110.503 48.9309H111.647V49.6008ZM112.655 48.9309H113.325V53.7159H112.655V48.9309ZM112.994 48.0936C112.886 48.0936 112.793 48.0585 112.717 47.9883C112.644 47.9149 112.607 47.824 112.607 47.7156C112.607 47.6071 112.644 47.5178 112.717 47.4476C112.793 47.3742 112.886 47.3375 112.994 47.3375C113.1 47.3375 113.189 47.3742 113.262 47.4476C113.339 47.5178 113.377 47.6071 113.377 47.7156C113.377 47.824 113.341 47.9149 113.267 47.9883C113.194 48.0585 113.103 48.0936 112.994 48.0936ZM114.65 53.7159V48.9309H115.32V49.5913C115.492 49.3488 115.712 49.1558 115.98 49.0123C116.248 48.8687 116.541 48.797 116.86 48.797C117.221 48.797 117.551 48.8863 117.851 49.0649C118.151 49.2404 118.385 49.4748 118.554 49.7683C118.723 49.4748 118.956 49.2404 119.253 49.0649C119.55 48.8863 119.878 48.797 120.239 48.797C120.599 48.797 120.928 48.8847 121.224 49.0601C121.521 49.2356 121.757 49.4716 121.933 49.7683C122.108 50.065 122.196 50.3936 122.196 50.754V53.7159H121.526V50.9024C121.526 50.6472 121.464 50.4111 121.339 50.1942C121.215 49.9773 121.047 49.8034 120.837 49.6726C120.629 49.5386 120.398 49.4716 120.143 49.4716C119.888 49.4716 119.655 49.5339 119.444 49.6583C119.237 49.7795 119.071 49.9486 118.947 50.1655C118.822 50.3792 118.76 50.6248 118.76 50.9024V53.7159H118.09V50.9024C118.09 50.6248 118.028 50.3792 117.904 50.1655C117.779 49.9486 117.612 49.7795 117.401 49.6583C117.191 49.5339 116.958 49.4716 116.703 49.4716C116.451 49.4716 116.219 49.5386 116.009 49.6726C115.798 49.8034 115.631 49.9773 115.506 50.1942C115.382 50.4111 115.32 50.6472 115.32 50.9024V53.7159H114.65ZM127.186 48.9309H127.856V53.7159H127.186L127.162 52.8259C127.005 53.129 126.787 53.3746 126.506 53.5628C126.225 53.7478 125.89 53.8404 125.501 53.8404C125.15 53.8404 124.822 53.775 124.516 53.6442C124.209 53.5102 123.94 53.3268 123.707 53.0939C123.474 52.861 123.292 52.5915 123.161 52.2852C123.031 51.979 122.965 51.6504 122.965 51.2995C122.965 50.955 123.029 50.6312 123.157 50.3282C123.287 50.0251 123.466 49.7587 123.693 49.5291C123.922 49.2994 124.187 49.1207 124.487 48.9931C124.79 48.8624 125.114 48.797 125.458 48.797C125.857 48.797 126.205 48.8927 126.501 49.0841C126.798 49.2723 127.034 49.5195 127.21 49.8257L127.186 48.9309ZM125.487 53.1896C125.828 53.1896 126.122 53.1067 126.367 52.9408C126.613 52.7717 126.801 52.5452 126.932 52.2613C127.066 51.9774 127.133 51.6648 127.133 51.3234C127.133 50.9725 127.066 50.6567 126.932 50.376C126.798 50.0921 126.608 49.8672 126.363 49.7013C126.117 49.5354 125.825 49.4525 125.487 49.4525C125.149 49.4525 124.839 49.537 124.559 49.7061C124.281 49.872 124.059 50.0969 123.894 50.3808C123.731 50.6647 123.65 50.9789 123.65 51.3234C123.65 51.6712 123.734 51.987 123.903 52.2709C124.072 52.5516 124.295 52.7749 124.573 52.9408C124.854 53.1067 125.158 53.1896 125.487 53.1896ZM131.45 49.6008H130.306L130.301 53.7159H129.631L129.636 49.6008H128.77V48.9309H129.636L129.631 47.4285H130.301L130.306 48.9309H131.45V49.6008ZM134.469 53.8404C134.029 53.8404 133.627 53.7271 133.264 53.5006C132.903 53.2741 132.614 52.9711 132.398 52.5915C132.184 52.2087 132.077 51.786 132.077 51.3234C132.077 50.9725 132.139 50.6456 132.264 50.3425C132.388 50.0363 132.559 49.7683 132.776 49.5386C132.996 49.3058 133.251 49.1239 133.541 48.9931C133.831 48.8624 134.141 48.797 134.469 48.797C134.824 48.797 135.149 48.8671 135.446 49.0075C135.745 49.1479 136.002 49.344 136.216 49.5961C136.433 49.8481 136.596 50.1431 136.704 50.4813C136.816 50.8194 136.862 51.1847 136.843 51.577H132.785C132.823 51.8801 132.919 52.1512 133.072 52.3905C133.229 52.6297 133.426 52.8196 133.666 52.9599C133.908 53.0971 134.176 53.1673 134.469 53.1705C134.788 53.1705 135.076 53.0875 135.331 52.9216C135.589 52.7558 135.796 52.5277 135.953 52.2374L136.632 52.3953C136.441 52.8196 136.152 53.1673 135.766 53.4384C135.38 53.7064 134.948 53.8404 134.469 53.8404ZM132.766 51.0363H136.168C136.146 50.7397 136.055 50.4685 135.895 50.2229C135.739 49.9741 135.536 49.7763 135.288 49.6296C135.039 49.4796 134.766 49.4047 134.469 49.4047C134.173 49.4047 133.902 49.478 133.656 49.6248C133.41 49.7683 133.209 49.9645 133.053 50.2133C132.897 50.459 132.801 50.7333 132.766 51.0363ZM144.564 50.754V53.7159H143.894V50.888C143.894 50.6264 143.83 50.3888 143.703 50.175C143.575 49.9613 143.405 49.7906 143.191 49.663C142.977 49.5354 142.739 49.4716 142.478 49.4716C142.219 49.4716 141.982 49.5354 141.765 49.663C141.551 49.7906 141.381 49.9613 141.253 50.175C141.125 50.3888 141.062 50.6264 141.062 50.888V53.7159H140.392V48.9309H141.062V49.5913C141.231 49.3488 141.451 49.1558 141.722 49.0123C141.993 48.8687 142.288 48.797 142.607 48.797C142.968 48.797 143.296 48.8847 143.593 49.0601C143.889 49.2356 144.126 49.4716 144.301 49.7683C144.476 50.065 144.564 50.3936 144.564 50.754ZM147.726 53.8404C147.286 53.8404 146.884 53.7271 146.52 53.5006C146.159 53.2741 145.871 52.9711 145.654 52.5915C145.44 52.2087 145.333 51.786 145.333 51.3234C145.333 50.9725 145.395 50.6456 145.52 50.3425C145.644 50.0363 145.815 49.7683 146.032 49.5386C146.252 49.3058 146.507 49.1239 146.797 48.9931C147.088 48.8624 147.397 48.797 147.726 48.797C148.166 48.797 148.566 48.9102 148.927 49.1367C149.29 49.3632 149.579 49.6678 149.793 50.0506C150.01 50.4334 150.118 50.8577 150.118 51.3234C150.118 51.6712 150.056 51.9965 149.932 52.2996C149.807 52.6026 149.635 52.8706 149.415 53.1035C149.198 53.3331 148.944 53.5134 148.654 53.6442C148.367 53.775 148.058 53.8404 147.726 53.8404ZM147.726 53.1705C148.051 53.1705 148.343 53.0859 148.601 52.9168C148.863 52.7446 149.069 52.5181 149.219 52.2374C149.372 51.9567 149.448 51.652 149.448 51.3234C149.448 50.9885 149.372 50.6807 149.219 50.3999C149.066 50.116 148.858 49.8895 148.597 49.7205C148.338 49.5514 148.048 49.4669 147.726 49.4669C147.4 49.4669 147.107 49.553 146.845 49.7253C146.587 49.8943 146.381 50.1192 146.228 50.3999C146.078 50.6807 146.003 50.9885 146.003 51.3234C146.003 51.668 146.081 51.9806 146.238 52.2613C146.394 52.5388 146.603 52.7605 146.864 52.9264C147.126 53.0891 147.413 53.1705 147.726 53.1705ZM153.481 49.6008H152.338L152.333 53.7159H151.663L151.668 49.6008H150.802V48.9309H151.668L151.663 47.4285H152.333L152.338 48.9309H153.481V49.6008ZM156.501 53.8404C156.061 53.8404 155.659 53.7271 155.295 53.5006C154.935 53.2741 154.646 52.9711 154.429 52.5915C154.215 52.2087 154.109 51.786 154.109 51.3234C154.109 50.9725 154.171 50.6456 154.295 50.3425C154.42 50.0363 154.59 49.7683 154.807 49.5386C155.027 49.3058 155.282 49.1239 155.573 48.9931C155.863 48.8624 156.172 48.797 156.501 48.797C156.855 48.797 157.18 48.8671 157.477 49.0075C157.777 49.1479 158.034 49.344 158.248 49.5961C158.464 49.8481 158.627 50.1431 158.736 50.4813C158.847 50.8194 158.894 51.1847 158.874 51.577H154.817C154.855 51.8801 154.951 52.1512 155.104 52.3905C155.26 52.6297 155.458 52.8196 155.697 52.9599C155.94 53.0971 156.208 53.1673 156.501 53.1705C156.82 53.1705 157.107 53.0875 157.362 52.9216C157.621 52.7558 157.828 52.5277 157.984 52.2374L158.664 52.3953C158.472 52.8196 158.184 53.1673 157.798 53.4384C157.412 53.7064 156.98 53.8404 156.501 53.8404ZM154.798 51.0363H158.2C158.177 50.7397 158.086 50.4685 157.927 50.2229C157.771 49.9741 157.568 49.7763 157.319 49.6296C157.07 49.4796 156.798 49.4047 156.501 49.4047C156.204 49.4047 155.933 49.478 155.688 49.6248C155.442 49.7683 155.241 49.9645 155.085 50.2133C154.928 50.459 154.833 50.7333 154.798 51.0363ZM161.374 53.8069C161.112 53.8005 160.857 53.7526 160.608 53.6633C160.36 53.574 160.143 53.4528 159.958 53.2996C159.773 53.1465 159.64 52.9727 159.56 52.7781L160.139 52.5293C160.19 52.6537 160.285 52.7685 160.422 52.8738C160.562 52.9759 160.722 53.0588 160.9 53.1226C161.079 53.1832 161.256 53.2135 161.431 53.2135C161.626 53.2135 161.808 53.1816 161.977 53.1178C162.146 53.054 162.283 52.9631 162.388 52.8451C162.497 52.7239 162.551 52.5819 162.551 52.4192C162.551 52.2438 162.494 52.1066 162.379 52.0077C162.264 51.9056 162.119 51.8259 161.943 51.7684C161.768 51.7078 161.588 51.6504 161.403 51.5962C161.065 51.5037 160.766 51.4016 160.508 51.2899C160.249 51.1783 160.047 51.0363 159.9 50.8641C159.757 50.6886 159.685 50.4637 159.685 50.1894C159.685 49.8991 159.766 49.6487 159.929 49.4382C160.095 49.2244 160.31 49.0601 160.575 48.9453C160.843 48.8273 161.128 48.7683 161.431 48.7683C161.821 48.7683 162.175 48.8528 162.494 49.0219C162.816 49.1909 163.049 49.4158 163.192 49.6965L162.652 50.0171C162.594 49.8863 162.503 49.7731 162.379 49.6774C162.254 49.5817 162.112 49.5067 161.953 49.4525C161.797 49.3983 161.637 49.3696 161.474 49.3664C161.27 49.3632 161.08 49.3935 160.905 49.4573C160.73 49.5179 160.588 49.6088 160.479 49.73C160.374 49.8513 160.321 49.9996 160.321 50.175C160.321 50.3505 160.374 50.4845 160.479 50.577C160.584 50.6663 160.726 50.7397 160.905 50.7971C161.087 50.8513 161.291 50.9151 161.517 50.9885C161.808 51.081 162.081 51.1863 162.336 51.3043C162.591 51.4223 162.797 51.5691 162.953 51.7445C163.109 51.92 163.186 52.1417 163.183 52.4096C163.183 52.6967 163.097 52.9472 162.924 53.1609C162.752 53.3746 162.529 53.5389 162.254 53.6537C161.98 53.7654 161.687 53.8164 161.374 53.8069ZM170.623 48.9309H171.292V53.7159H170.623L170.599 52.8259C170.442 53.129 170.224 53.3746 169.943 53.5628C169.662 53.7478 169.327 53.8404 168.938 53.8404C168.587 53.8404 168.259 53.775 167.953 53.6442C167.646 53.5102 167.377 53.3268 167.144 53.0939C166.911 52.861 166.729 52.5915 166.598 52.2852C166.468 51.979 166.402 51.6504 166.402 51.2995C166.402 50.955 166.466 50.6312 166.594 50.3282C166.724 50.0251 166.903 49.7587 167.13 49.5291C167.359 49.2994 167.624 49.1207 167.924 48.9931C168.227 48.8624 168.551 48.797 168.895 48.797C169.294 48.797 169.642 48.8927 169.938 49.0841C170.235 49.2723 170.471 49.5195 170.647 49.8257L170.623 48.9309ZM168.924 53.1896C169.265 53.1896 169.559 53.1067 169.804 52.9408C170.05 52.7717 170.238 52.5452 170.369 52.2613C170.503 51.9774 170.57 51.6648 170.57 51.3234C170.57 50.9725 170.503 50.6567 170.369 50.376C170.235 50.0921 170.045 49.8672 169.8 49.7013C169.554 49.5354 169.262 49.4525 168.924 49.4525C168.586 49.4525 168.276 49.537 167.996 49.7061C167.718 49.872 167.496 50.0969 167.331 50.3808C167.168 50.6647 167.086 50.9789 167.086 51.3234C167.086 51.6712 167.171 51.987 167.34 52.2709C167.509 52.5516 167.732 52.7749 168.01 52.9408C168.291 53.1067 168.595 53.1896 168.924 53.1896ZM173.111 56.1084H172.441V48.9309H173.111V49.8257C173.277 49.5227 173.504 49.2771 173.791 49.0888C174.078 48.9006 174.419 48.8065 174.815 48.8065C175.162 48.8065 175.488 48.8719 175.791 49.0027C176.097 49.1335 176.365 49.3153 176.595 49.5482C176.824 49.7779 177.005 50.0443 177.135 50.3473C177.266 50.6504 177.332 50.9757 177.332 51.3234C177.332 51.6712 177.266 51.9981 177.135 52.3044C177.005 52.6106 176.824 52.8802 176.595 53.113C176.365 53.3427 176.097 53.5229 175.791 53.6537C175.488 53.7845 175.162 53.8499 174.815 53.8499C174.419 53.8499 174.078 53.7558 173.791 53.5676C173.504 53.3794 173.277 53.1338 173.111 52.8307V56.1084ZM174.81 49.4573C174.475 49.4573 174.183 49.5418 173.934 49.7109C173.689 49.8768 173.499 50.1001 173.365 50.3808C173.231 50.6615 173.164 50.9757 173.164 51.3234C173.164 51.6648 173.229 51.9774 173.36 52.2613C173.494 52.5452 173.684 52.7717 173.93 52.9408C174.178 53.1098 174.472 53.1944 174.81 53.1944C175.142 53.1944 175.446 53.1114 175.724 52.9456C176.005 52.7797 176.23 52.5564 176.399 52.2757C176.568 51.9917 176.652 51.6743 176.652 51.3234C176.652 50.9821 176.569 50.6711 176.403 50.3904C176.238 50.1065 176.016 49.88 175.738 49.7109C175.461 49.5418 175.151 49.4573 174.81 49.4573ZM179.004 56.1084H178.334V48.9309H179.004V49.8257C179.169 49.5227 179.396 49.2771 179.683 49.0888C179.97 48.9006 180.311 48.8065 180.707 48.8065C181.055 48.8065 181.38 48.8719 181.683 49.0027C181.989 49.1335 182.257 49.3153 182.487 49.5482C182.717 49.7779 182.897 50.0443 183.028 50.3473C183.159 50.6504 183.224 50.9757 183.224 51.3234C183.224 51.6712 183.159 51.9981 183.028 52.3044C182.897 52.6106 182.717 52.8802 182.487 53.113C182.257 53.3427 181.989 53.5229 181.683 53.6537C181.38 53.7845 181.055 53.8499 180.707 53.8499C180.311 53.8499 179.97 53.7558 179.683 53.5676C179.396 53.3794 179.169 53.1338 179.004 52.8307V56.1084ZM180.702 49.4573C180.367 49.4573 180.075 49.5418 179.827 49.7109C179.581 49.8768 179.391 50.1001 179.257 50.3808C179.123 50.6615 179.056 50.9757 179.056 51.3234C179.056 51.6648 179.122 51.9774 179.252 52.2613C179.386 52.5452 179.576 52.7717 179.822 52.9408C180.071 53.1098 180.364 53.1944 180.702 53.1944C181.034 53.1944 181.339 53.1114 181.616 52.9456C181.897 52.7797 182.122 52.5564 182.291 52.2757C182.46 51.9917 182.544 51.6743 182.544 51.3234C182.544 50.9821 182.462 50.6711 182.296 50.3904C182.13 50.1065 181.908 49.88 181.631 49.7109C181.353 49.5418 181.044 49.4573 180.702 49.4573Z" fill="white"/>
<defs>
<linearGradient id="paint0_linear_2_272" x1="58.1493" y1="38.6213" x2="31.5439" y2="40.336" gradientUnits="userSpaceOnUse">
<stop stop-color="#FFFCFC"/>
<stop offset="1" stop-color="#49B6C2"/>
</linearGradient>
</defs>
</svg>
