<svg width="32" height="32" viewBox="0 0 32 32" fill="none" xmlns="http://www.w3.org/2000/svg">
<path d="M22.6667 2.66663V5.33329M16 2.66663V5.33329M9.33337 2.66663V5.33329" stroke="#FFFCFC" stroke-width="2" stroke-linecap="round" stroke-linejoin="round"/>
<path d="M4.66663 17.3333V12C4.66663 8.22876 4.66663 6.34315 5.8382 5.17157C7.00977 4 8.89539 4 12.6666 4H19.3333C23.1045 4 24.9901 4 26.1617 5.17157C27.3333 6.34315 27.3333 8.22876 27.3333 12V17.3333C27.3333 21.1045 27.3333 22.9901 26.1617 24.1617C24.9901 25.3333 23.1045 25.3333 19.3333 25.3333H12.6666C8.89539 25.3333 7.00977 25.3333 5.8382 24.1617C4.66663 22.9901 4.66663 21.1045 4.66663 17.3333Z" stroke="#FFFCFC" stroke-width="2"/>
<path d="M4.66663 21.3333V12C4.66663 8.22876 4.66663 6.34315 5.8382 5.17157C7.00977 4 8.89539 4 12.6666 4H19.3333C23.1045 4 24.9901 4 26.1617 5.17157C27.3333 6.34315 27.3333 8.22876 27.3333 12V21.3333C27.3333 25.1045 27.3333 26.9901 26.1617 28.1617C24.9901 29.3333 23.1045 29.3333 19.3333 29.3333H12.6666C8.89539 29.3333 7.00977 29.3333 5.8382 28.1617C4.66663 26.9901 4.66663 25.1045 4.66663 21.3333Z" stroke="#FFFCFC" stroke-width="2"/>
<path d="M10.6666 20H16M10.6666 13.3334H21.3333" stroke="#FFFCFC" stroke-width="2" stroke-linecap="round"/>
</svg>
