<svg width="32" height="32" viewBox="0 0 32 32" fill="none" xmlns="http://www.w3.org/2000/svg">
<path d="M28.4233 9.52184L27.7652 8.3797C27.2674 7.51593 27.0186 7.08405 26.5952 6.91182C26.1717 6.73961 25.6928 6.8755 24.735 7.14729L23.1081 7.60556C22.4966 7.74657 21.855 7.66657 21.2968 7.3797L20.8476 7.12054C20.3688 6.81389 20.0005 6.36176 19.7966 5.8303L19.3514 4.50046C19.0586 3.62044 18.9122 3.18042 18.5637 2.92874C18.2153 2.67706 17.7524 2.67706 16.8265 2.67706H15.3401C14.4144 2.67706 13.9514 2.67706 13.6029 2.92874C13.2544 3.18042 13.1081 3.62044 12.8153 4.50046L12.37 5.8303C12.1662 6.36176 11.7979 6.81389 11.3191 7.12054L10.87 7.3797C10.3116 7.66657 9.6701 7.74657 9.05862 7.60556L7.43164 7.14729C6.47386 6.8755 5.99498 6.73961 5.57154 6.91182C5.1481 7.08405 4.89924 7.51593 4.40151 8.3797L3.7434 9.52184C3.27686 10.3315 3.04358 10.7363 3.08886 11.1673C3.13412 11.5983 3.44642 11.9456 4.07099 12.6401L5.44571 14.177C5.78171 14.6024 6.02026 15.3437 6.02026 16.0102C6.02026 16.677 5.78179 17.4181 5.44575 17.8436L4.07099 19.3805C3.44642 20.0752 3.13414 20.4224 3.08886 20.8534C3.04358 21.2844 3.27686 21.6892 3.7434 22.4988L4.4015 23.6409C4.89922 24.5046 5.1481 24.9366 5.57154 25.1088C5.99498 25.281 6.47387 25.1452 7.43167 24.8733L9.05856 24.415C9.67015 24.274 10.3118 24.3541 10.8702 24.641L11.3193 24.9002C11.798 25.2069 12.1662 25.6589 12.37 26.1904L12.8153 27.5204C13.1081 28.4004 13.2544 28.8404 13.6029 29.0921C13.9514 29.3437 14.4144 29.3437 15.3401 29.3437H16.8265C17.7524 29.3437 18.2153 29.3437 18.5637 29.0921C18.9122 28.8404 19.0586 28.4004 19.3514 27.5204L19.7968 26.1904C20.0005 25.6589 20.3686 25.2069 20.8474 24.9002L21.2965 24.641C21.8549 24.3541 22.4965 24.274 23.1081 24.415L24.735 24.8733C25.6928 25.1452 26.1717 25.281 26.5952 25.1088C27.0186 24.9366 27.2674 24.5046 27.7652 23.6409L28.4233 22.4988C28.8898 21.6892 29.123 21.2844 29.0778 20.8534C29.0325 20.4224 28.7202 20.0752 28.0957 19.3805L26.7209 17.8436C26.3849 17.4181 26.1464 16.677 26.1464 16.0102C26.1464 15.3437 26.385 14.6024 26.7209 14.177L28.0957 12.6401C28.7202 11.9456 29.0325 11.5983 29.0778 11.1673C29.123 10.7363 28.8898 10.3315 28.4233 9.52184Z" stroke="#FFFCFC" stroke-width="2" stroke-linecap="round"/>
<path d="M20.6927 16C20.6927 18.5773 18.6033 20.6666 16.026 20.6666C13.4487 20.6666 11.3594 18.5773 11.3594 16C11.3594 13.4226 13.4487 11.3333 16.026 11.3333C18.6033 11.3333 20.6927 13.4226 20.6927 16Z" stroke="#FFFCFC" stroke-width="2"/>
</svg>
