<svg width="32" height="32" viewBox="0 0 32 32" fill="none" xmlns="http://www.w3.org/2000/svg">
<path d="M8.7701 20.6422C6.88374 21.7654 1.93782 24.0589 4.95022 26.9289C6.42175 28.3307 8.06066 29.3334 10.1212 29.3334H21.8788C23.9393 29.3334 25.5783 28.3307 27.0497 26.9289C30.0621 24.0589 25.1163 21.7654 23.2299 20.6422C18.8064 18.0082 13.1936 18.0082 8.7701 20.6422Z" stroke="#FFFCFC" stroke-width="2" stroke-linecap="round" stroke-linejoin="round"/>
<path d="M22 8.66669C22 11.9804 19.3137 14.6667 16 14.6667C12.6863 14.6667 10 11.9804 10 8.66669C10 5.35298 12.6863 2.66669 16 2.66669C19.3137 2.66669 22 5.35298 22 8.66669Z" stroke="#FFFCFC" stroke-width="2"/>
</svg>
